PathFileType	4	(X/Y/Z)	/Users/itak/Documents/Research/Walk-IL/dataset/trc/00245_00009.trc
DataRate	CameraRate	NumFrames	NumMarkers	Units	OrigDataRate	OrigDataStartFrame	OrigNumFrames
100.000000	100.000000	4	53	mm	100.000000	684	782
Frame#	Time	RPSI			LPSI			L3			STRN			T10			C7			CLAV			RBAK			LBAK			LSHO			LUPA			LAEL			LAOL			LWTS			LWPS			LFRA			LIFD			LHPS			LHTS			RSHO			RUPA			RAEL			RAOL			RWTS			RWPS			RFRA			RIFD			RHTS			RHPS			RBHD			LFHD			RFHD			LBHD			LHIP			RHIP			RASI			LASI			LKNE			LTHI			LANK			LTIP			LTOE			LMT1			LMT5			LHEE			RKNE			RTHI			RANK			RTIP			RTOE			RMT1			RMT5			RHEE			
		X1	Y1	Z1	X2	Y2	Z2	X3	Y3	Z3	X4	Y4	Z4	X5	Y5	Z5	X6	Y6	Z6	X7	Y7	Z7	X8	Y8	Z8	X9	Y9	Z9	X10	Y10	Z10	X11	Y11	Z11	X12	Y12	Z12	X13	Y13	Z13	X14	Y14	Z14	X15	Y15	Z15	X16	Y16	Z16	X17	Y17	Z17	X18	Y18	Z18	X19	Y19	Z19	X20	Y20	Z20	X21	Y21	Z21	X22	Y22	Z22	X23	Y23	Z23	X24	Y24	Z24	X25	Y25	Z25	X26	Y26	Z26	X27	Y27	Z27	X28	Y28	Z28	X29	Y29	Z29	X30	Y30	Z30	X31	Y31	Z31	X32	Y32	Z32	X33	Y33	Z33	X34	Y34	Z34	X35	Y35	Z35	X36	Y36	Z36	X37	Y37	Z37	X38	Y38	Z38	X39	Y39	Z39	X40	Y40	Z40	X41	Y41	Z41	X42	Y42	Z42	X43	Y43	Z43	X44	Y44	Z44	X45	Y45	Z45	X46	Y46	Z46	X47	Y47	Z47	X48	Y48	Z48	X49	Y49	Z49	X50	Y50	Z50	X51	Y51	Z51	X52	Y52	Z52	X53	Y53	Z53	

685	6.84	654.3978881835938	1031.11181640625	272.2806091308594	732.0020141601562	1037.781372070312	364.1676635742188	704.5271606445312	1120.137084960938	319.9024963378906	520.2013549804688	1304.543090820312	483.8199768066406	698.5362548828125	1246.144287109375	306.9139404296875	653.587890625	1508.04345703125	347.5985412597656	537.2254028320312	1422.003173828125	462.9573059082031	656.16796875	1368.368774414062	242.2999725341797	745.8703002929688	1469.842163085938	412.0079345703125	722.7276000976562	1470.894287109375	515.1577758789062	800.94775390625	1353.148193359375	548.6217651367188	818.5120849609375	1144.185424804688	578.315185546875	828.8540649414062	1126.859008789062	493.108154296875	727.1699829101562	906.3089599609375	615.1118774414062	805.1336059570312	894.8649291992188	646.0526123046875	819.2860717773438	1037.85009765625	605.6845092773438	744.4536743164062	711.5270385742188	627.5221557617188	798.0485229492188	806.4332275390625	658.3955078125	729.7785034179688	806.0402221679688	658.5667724609375	493.0251159667969	1466.13720703125	269.7505798339844	458.6537475585938	1401.368896484375	208.9085540771484	441.9027709960938	1119.476318359375	170.9554138183594	528.0657958984375	1110.512084960938	210.3781280517578	353.6847534179688	939.6150512695312	330.5115661621094	345.3865966796875	909.4959716796875	251.7546691894531	408.3114929199219	1054.453002929688	189.6355438232422	334.4028625488281	760.86572265625	382.5298461914062	299.6722717285156	830.7025146484375	369.5727233886719	302.4077758789062	815.0897216796875	298.4422912597656	581.9998779296875	1673.4072265625	356.4963073730469	482.9934997558594	1685.9150390625	560.344482421875	418.83642578125	1683.522827148438	482.2398681640625	630.7360229492188	1675.309936523438	487.8656616210938	746.4862670898438	980.468994140625	536.3320922851562	511.1751403808594	993.906494140625	256.1134338378906	460.5743408203125	1036.627563476562	346.1344909667969	638.2534790039062	1027.822265625	565.2891845703125	664.19384765625	503.3095092773438	608.6634521484375	690.5049438476562	647.2402954101562	601.9009399414062	870.2655029296875	102.8667297363281	403.4657897949219	772.4036254882812	320.243408203125	514.7734375	716.291015625	43.82490539550781	541.6070556640625	715.6578979492188	54.86064910888672	462.5176086425781	820.4063110351562	55.74948883056641	509.2890930175781	857.2868041992188	132.0870513916016	330.5384826660156	472.66259765625	510.7536926269531	378.44921875	452.0584106445312	774.068115234375	314.9771728515625	559.2797241210938	31.88745307922363	391.7146911621094	477.9517211914062	390.8379821777344	409.6282348632812	408.6388549804688	39.7015495300293	547.7807006835938	480.7556762695312	36.17109298706055	549.7735595703125	455.0804443359375	35.21554946899414	432.8414306640625	642.567626953125	29.65925788879395	403.2453918457031	
686	6.850000000000001	654.1532592773438	1031.334228515625	275.4708251953125	730.7487182617188	1038.016479492188	368.1242370605469	703.57861328125	1120.558959960938	323.3688354492188	517.8369140625	1304.80224609375	485.929931640625	697.50634765625	1246.378295898438	309.8714599609375	651.9381103515625	1508.304809570312	350.420654296875	534.9881591796875	1422.228393554688	465.1781311035156	655.0382080078125	1368.62158203125	245.1074371337891	743.853271484375	1470.142456054688	415.3844604492188	720.115234375	1471.27978515625	518.3806762695312	798.2205810546875	1353.700561523438	552.6057739257812	815.9640502929688	1144.889770507812	583.2188110351562	826.797119140625	1127.220336914062	498.1359252929688	724.4661254882812	907.2677001953125	620.6478881835938	802.3180541992188	895.8101806640625	651.8953857421875	816.6344604492188	1038.65625	611.0313110351562	741.1101684570312	712.5465698242188	634.3047485351562	794.9143676757812	807.4508666992188	664.6781616210938	726.6629028320312	807.26611328125	664.626220703125	491.7772827148438	1466.384643554688	271.8337097167969	457.4997253417969	1401.587646484375	210.9362335205078	440.0433349609375	1119.622314453125	173.6390075683594	526.2621459960938	1110.546630859375	212.8728179931641	351.5398254394531	941.2642211914062	334.6784973144531	342.8671264648438	910.5745239257812	256.1738586425781	406.1654052734375	1054.78369140625	192.9253082275391	331.5404663085938	763.0639038085938	388.2337951660156	297.0625	832.9427490234375	374.7519836425781	299.6064758300781	816.7274169921875	303.7582092285156	580.093994140625	1673.677734375	359.0066223144531	480.3419189453125	1686.03076171875	562.4939575195312	416.5080871582031	1683.660034179688	484.1510620117188	628.3305053710938	1675.508666992188	490.554443359375	743.4644165039062	980.8604125976562	540.519775390625	510.9679565429688	993.7771606445312	257.9874267578125	459.5924682617188	1036.752807617188	347.3189392089844	635.004150390625	1028.201171875	568.169921875	658.5831909179688	504.0918273925781	613.684814453125	686.081787109375	647.9050903320312	606.5740966796875	861.1539306640625	97.41897583007812	417.6651916503906	765.5215454101562	318.1733093261719	523.8634033203125	703.2536010742188	44.8121337890625	554.07568359375	704.4679565429688	54.09124374389648	474.7892150878906	808.2843017578125	53.64844512939453	523.5037841796875	850.2283325195312	125.3940658569336	343.8630065917969	472.2427368164062	510.7422485351562	379.1373901367188	451.8597106933594	774.092529296875	316.0315246582031	559.3641357421875	31.92817497253418	391.7777709960938	477.4555969238281	390.7369689941406	410.2292175292969	408.6106262207031	39.70635604858398	547.7545776367188	480.7433166503906	36.15309524536133	549.76611328125	455.0877685546875	35.23499298095703	432.8249816894531	642.63427734375	29.67786979675293	403.3043823242188	
687	6.86	653.9065551757812	1031.52490234375	278.6306457519531	729.5303344726562	1038.249633789062	372.0220336914062	702.6939697265625	1120.935180664062	326.8544921875	515.5615234375	1305.060424804688	487.9907531738281	696.6015014648438	1246.577514648438	312.8343505859375	650.4180908203125	1508.540283203125	353.2190551757812	532.843505859375	1422.466796875	467.3600463867188	654.0687866210938	1368.8427734375	247.9100036621094	741.9385375976562	1470.420043945312	418.7486267089844	717.5929565429688	1471.65087890625	521.582275390625	795.5589599609375	1354.218627929688	556.5604858398438	813.41455078125	1145.55517578125	588.069091796875	824.7291870117188	1127.542236328125	503.1150512695312	721.6282958984375	908.2384033203125	626.1797485351562	799.3902587890625	896.7222900390625	657.68798828125	813.9495849609375	1039.42431640625	616.330810546875	737.5614624023438	713.578369140625	641.0245971679688	791.615478515625	808.4402465820312	670.8976440429688	723.356201171875	808.4737548828125	670.5758056640625	490.6840515136719	1466.611083984375	273.8323669433594	456.5303039550781	1401.785034179688	212.8700408935547	438.3843383789062	1119.748413085938	176.2128143310547	524.6497802734375	1110.564086914062	215.3197784423828	349.5317993164062	942.806884765625	338.5604858398438	340.5517578125	911.5924072265625	260.3004760742188	404.2131042480469	1055.087524414062	196.0752410888672	328.8296508789062	765.1317138671875	393.5101013183594	294.6146240234375	835.034912109375	379.5509948730469	296.9981994628906	818.2732543945312	308.68408203125	578.3153076171875	1673.9384765625	361.4520874023438	477.7933959960938	1686.159790039062	564.5634155273438	414.2844848632812	1683.799072265625	485.9718933105469	626.0261840820312	1675.705078125	493.1803283691406	740.4412841796875	981.3186645507812	544.765625	510.73388671875	993.5469360351562	259.9015502929688	458.6669921875	1036.877319335938	348.5123596191406	631.8485717773438	1028.599609375	571.1036987304688	653.032958984375	504.8536376953125	618.4741821289062	681.6986083984375	648.5293579101562	611.0986328125	851.8967895507812	92.28741455078125	431.4857482910156	758.5790405273438	316.2030334472656	532.67626953125	690.2178955078125	45.92916107177734	565.9154052734375	693.2784423828125	53.50795364379883	486.5796508789062	796.12109375	51.86135864257812	537.2147216796875	842.9871215820312	118.9864044189453	356.8857727050781	471.7572631835938	510.7219848632812	379.94189453125	451.6596069335938	774.122314453125	317.1756591796875	559.4419555664062	31.96953582763672	391.8420715332031	476.9089050292969	390.6278686523438	410.9238891601562	408.57666015625	39.71050262451172	547.7308959960938	480.7265319824219	36.12934112548828	549.7645263671875	455.0940246582031	35.25534820556641	432.8110961914062	642.7023315429688	29.69953918457031	403.3666076660156	
688	6.87	653.6551513671875	1031.685180664062	281.7600708007812	728.35888671875	1038.483032226562	375.85302734375	701.8583374023438	1121.271850585938	330.3431396484375	513.368896484375	1305.317260742188	490.0005798339844	695.8011474609375	1246.749755859375	315.8075561523438	649.0249633789062	1508.75537109375	355.9987182617188	530.7854614257812	1422.735717773438	469.5061340332031	653.2547607421875	1369.038330078125	250.7110900878906	740.1270141601562	1470.680053710938	422.10400390625	715.1556396484375	1472.01025390625	524.7662963867188	792.9571533203125	1354.70556640625	560.491455078125	810.84130859375	1146.186767578125	592.8720092773438	822.637451171875	1127.829345703125	508.0525817871094	718.6400146484375	909.2125244140625	631.6757202148438	796.3196411132812	897.6140747070312	663.4371948242188	811.20703125	1040.159912109375	621.5883178710938	733.8487548828125	714.6131591796875	647.6630249023438	788.1571044921875	809.416748046875	677.0648803710938	719.8560791015625	809.6561889648438	676.3912353515625	489.7389526367188	1466.8212890625	275.7538146972656	455.7462463378906	1401.972045898438	214.713623046875	436.9362487792969	1119.859985351562	178.6800994873047	523.2454223632812	1110.576293945312	217.736328125	347.6476745605469	944.240966796875	342.1471557617188	338.4517211914062	912.5494384765625	264.1238403320312	402.4817810058594	1055.37060546875	199.0629730224609	326.2584838867188	767.059326171875	398.3435974121094	292.3334655761719	836.9700317382812	383.9539794921875	294.5893249511719	819.72021484375	313.2007446289062	576.6654052734375	1674.192749023438	363.8365173339844	475.3468322753906	1686.30810546875	566.5556640625	412.1666870117188	1683.946533203125	487.7112426757812	623.8280029296875	1675.90283203125	495.7474670410156	737.4522094726562	981.8367919921875	549.0281372070312	510.5092468261719	993.27392578125	261.8116455078125	457.7977294921875	1037.004638671875	349.7274169921875	628.774658203125	1029.024169921875	574.0579223632812	647.5390625	505.6007080078125	623.0223999023438	677.3464965820312	649.1199951171875	615.4711303710938	842.5183715820312	87.48115539550781	444.8853454589844	751.5810546875	314.3365478515625	541.1914672851562	677.2650146484375	47.14051818847656	577.1403198242188	682.1199951171875	53.07846069335938	497.8778381347656	783.9699096679688	50.38927459716797	550.3974609375	835.5645141601562	112.8740081787109	369.5616760253906	471.1999206542969	510.697265625	380.866943359375	451.4346618652344	774.1619873046875	318.421630859375	559.512939453125	32.01122283935547	391.907470703125	476.3161315917969	390.5130004882812	411.7115783691406	408.5361633300781	39.71331787109375	547.7108764648438	480.7048645019531	36.10060501098633	549.7684326171875	455.099365234375	35.27671432495117	432.8001098632812	642.7694702148438	29.72450828552246	403.4297485351562	
